<svg width="15" height="15" viewBox="0 0 15 15" version="1.1" xmlns="http://www.w3.org/2000/svg" xmlns:xlink="http://www.w3.org/1999/xlink">
<title>logout</title>
<desc>Created using Figma</desc>
<g id="Canvas" transform="translate(-2105 418)">
<g id="logout">
<g id="Group">
<g id="svg 1">
<g id="svg 2">
<g id="svg 3">
<g id="svg 4">
<use xlink:href="#path0_fill" transform="translate(2105.64 -416.064)" fill="#FFFFFF"/>
</g>
<g id="svg 5">
<use xlink:href="#path1_fill" transform="translate(2112.2 -417.671)" fill="#FFFFFF"/>
</g>
</g>
</g>
</g>
</g>
</g>
</g>
<defs>
<path id="path0_fill" d="M 7.17923 13.0642C 3.21996 13.0642 0 10.0043 0 6.24384C 0 3.6151 1.54583 1.2648 4.03564 0.10911C 4.34725 -0.0346027 4.71996 0.0941398 4.8666 0.399529C 5.01324 0.704918 4.88187 1.07019 4.57026 1.2139C 2.52037 2.166 1.24949 4.09115 1.24949 6.24384C 1.24949 9.33067 3.91039 11.8426 7.17923 11.8426C 10.4481 11.8426 13.109 9.33067 13.109 6.24384C 13.109 4.07618 11.7648 2.08516 9.68126 1.16899C 9.3666 1.03127 9.22607 0.66899 9.3666 0.360607C 9.50713 0.0522235 9.87678 -0.0855009 10.1914 0.0552176C 12.724 1.166 14.3585 3.59713 14.3585 6.24384C 14.3585 10.0043 11.1385 13.0642 7.17923 13.0642Z"/>
<path id="path1_fill" d="M 0.623218 8.29042C 0.278004 8.29042 1.86462e-07 8.01796 1.86462e-07 7.67964L 1.86462e-07 0.610778C 1.86462e-07 0.272455 0.281059 -2.12737e-16 0.623218 -2.12737e-16C 0.968432 -2.12737e-16 1.24644 0.272455 1.24644 0.610778L 1.24644 7.67964C 1.24644 8.01796 0.968432 8.29042 0.623218 8.29042Z"/>
</defs>
</svg>
