<svg width="136" height="136" viewBox="0 0 136 136" version="1.1" xmlns="http://www.w3.org/2000/svg" xmlns:xlink="http://www.w3.org/1999/xlink">
<title>Group</title>
<desc>Created using Figma</desc>
<g id="Canvas" transform="translate(-1569 152)">
<g id="Group">
<g id="Ellipse 2">
<use xlink:href="#path0_fill" transform="translate(1569 -152)" fill="#F2F2F2"/>
</g>
<g id="Mask Group">
<mask id="mask0_alpha" mask-type="alpha">
<g id="Ellipse 2">
<use xlink:href="#path0_fill" transform="translate(1569 -152)" fill="#F2F2F2"/>
</g>
</mask>
<g id="family-icon" mask="url(#mask0_alpha)">
<g id="Group">
<g id="Group">
<g id="Vector">
<use xlink:href="#path1_fill" transform="translate(1605.93 -82.0209)" fill="#BDBDBD"/>
</g>
</g>
</g>
<g id="Group">
<g id="Group">
<g id="Vector">
<use xlink:href="#path2_fill" transform="translate(1602.25 -91.2259)" fill="#BDBDBD"/>
</g>
</g>
</g>
<g id="Group">
<g id="Group">
<g id="Vector">
<use xlink:href="#path3_fill" transform="translate(1616.98 -91.2259)" fill="#BDBDBD"/>
</g>
</g>
</g>
<g id="Group">
<g id="Group">
<g id="Vector">
<use xlink:href="#path4_fill" transform="translate(1659.32 -72.8161)" fill="#BDBDBD"/>
</g>
</g>
</g>
<g id="Group">
<g id="Group">
<g id="Vector">
<use xlink:href="#path5_fill" transform="translate(1655.64 -82.0209)" fill="#BDBDBD"/>
</g>
</g>
</g>
<g id="Group">
<g id="Group">
<g id="Vector">
<use xlink:href="#path6_fill" transform="translate(1670.37 -82.0209)" fill="#BDBDBD"/>
</g>
</g>
</g>
<g id="Group">
<g id="Group">
<g id="Vector">
<use xlink:href="#path7_fill" transform="translate(1582 -117)" fill="#BDBDBD"/>
</g>
</g>
</g>
<g id="Group">
<g id="Group">
<g id="Vector">
<use xlink:href="#path8_fill" transform="translate(1633.55 -45.201)" fill="#BDBDBD"/>
</g>
</g>
</g>
<g id="Group">
<g id="Group">
<g id="Vector">
<use xlink:href="#path9_fill" transform="translate(1631.74 -52.5577)" fill="#BDBDBD"/>
</g>
</g>
</g>
<g id="Group">
<g id="Group">
<g id="Vector">
<use xlink:href="#path9_fill" transform="translate(1642.69 -52.5577)" fill="#BDBDBD"/>
</g>
</g>
</g>
</g>
</g>
</g>
</g>
<defs>
<path id="path0_fill" d="M 136 68C 136 105.555 105.555 136 68 136C 30.4446 136 0 105.555 0 68C 0 30.4446 30.4446 0 68 0C 105.555 0 136 30.4446 136 68Z"/>
<path id="path1_fill" d="M 9.9903 0.359938C 9.29914 -0.200592 8.28464 -0.0948889 7.7239 0.596482C 7.07292 1.39914 6.20988 1.84108 5.29336 1.84108C 4.37683 1.84108 3.51379 1.39893 2.86281 0.596482C 2.30228 -0.0946741 1.28735 -0.200377 0.596412 0.359938C -0.0947439 0.920469 -0.200662 1.93518 0.359869 2.62634C 1.61607 4.17537 3.41432 5.06375 5.29336 5.06375C 7.17239 5.06375 8.97043 4.17537 10.2268 2.62634C 10.7874 1.93518 10.6815 0.920469 9.9903 0.359938Z"/>
<path id="path2_fill" d="M 1.61134 3.40941e-07C 0.72145 3.40941e-07 5.76976e-07 0.72145 5.76976e-07 1.61134L 5.76976e-07 3.45234C 5.76976e-07 4.34223 0.72145 5.06368 1.61134 5.06368C 2.50123 5.06368 3.22268 4.34223 3.22268 3.45234L 3.22268 1.61134C 3.22268 0.72145 2.50123 3.40941e-07 1.61134 3.40941e-07Z"/>
<path id="path3_fill" d="M 1.61134 3.40941e-07C 0.721451 3.40941e-07 9.96595e-07 0.72145 9.96595e-07 1.61134L 9.96595e-07 3.45234C 9.96595e-07 4.34223 0.721236 5.06368 1.61134 5.06368C 2.50123 5.06368 3.22268 4.34223 3.22268 3.45234L 3.22268 1.61134C 3.22268 0.72145 2.50123 3.40941e-07 1.61134 3.40941e-07Z"/>
<path id="path4_fill" d="M 9.99017 0.359937C 9.29901 -0.200593 8.2843 -0.0948902 7.72377 0.596481C 7.07278 1.39893 6.20954 1.84108 5.29323 1.84108C 4.3767 1.84108 3.51366 1.39893 2.86268 0.596481C 2.30237 -0.0946753 1.28744 -0.200593 0.596285 0.359937C -0.0948715 0.920468 -0.200577 1.93518 0.359954 2.62634C 1.61594 4.17558 3.41419 5.06375 5.29323 5.06375C 7.17226 5.06375 8.9703 4.17537 10.2265 2.62634C 10.787 1.93518 10.6813 0.920468 9.99017 0.359937Z"/>
<path id="path5_fill" d="M 1.61134 6.03203e-07C 0.72145 6.03203e-07 5.76976e-07 0.72145 5.76976e-07 1.61134L 5.76976e-07 3.45234C 5.76976e-07 4.34223 0.72145 5.06368 1.61134 5.06368C 2.50123 5.06368 3.22268 4.34223 3.22268 3.45234L 3.22268 1.61134C 3.22268 0.72145 2.50123 6.03203e-07 1.61134 6.03203e-07Z"/>
<path id="path6_fill" d="M 1.61134 6.03203e-07C 0.721451 6.03203e-07 9.96595e-07 0.72145 9.96595e-07 1.61134L 9.96595e-07 3.45234C 9.96595e-07 4.34223 0.721236 5.06368 1.61134 5.06368C 2.50123 5.06368 3.22268 4.34223 3.22268 3.45234L 3.22268 1.61134C 3.22268 0.72145 2.50123 6.03203e-07 1.61134 6.03203e-07Z"/>
<path id="path7_fill" d="M 105.516 66.8437L 92.8923 61.7941C 92.824 61.7669 92.7608 61.7321 92.6968 61.6985C 101.416 59.7147 105.545 56.397 105.728 56.2468C 106.164 55.8896 106.382 55.3305 106.302 54.7726C 106.284 54.645 104.477 41.8529 104.477 29.2267C 104.477 17.1717 94.6699 7.36424 82.615 7.36424C 70.56 7.36424 60.7528 17.1715 60.7528 29.2267C 60.7528 32.5297 60.6028 36.5696 60.3588 40.3941L 56.8411 42.153L 46.5157 36.9905C 46.486 36.9757 46.4549 36.9649 46.4246 36.9521C 46.9157 35.5205 47.2369 34.011 47.3548 32.4446C 49.5147 31.7773 51.0884 29.7618 51.0884 27.3856C 51.0884 25.7853 50.3734 24.3497 49.2474 23.3781L 49.2474 12.6574C 49.2474 9.69574 47.751 6.92467 45.2971 5.25962C 44.4656 2.17015 41.6898 1.63914e-08 38.431 1.63914e-08L 23.703 1.63914e-08C 15.7086 1.63914e-08 9.2046 6.504 9.2046 14.4984L 9.2046 23.3779C 8.0786 24.3492 7.3636 25.7851 7.3636 27.3854C 7.3636 29.7616 8.93734 31.7771 11.0972 32.4444C 11.5041 37.854 14.2919 42.607 18.4096 45.666L 18.4096 50.1197L 5.08409 54.1173C 2.04318 55.0298 0 57.7757 0 60.9507L 0 78.9334C 0 79.8233 0.721449 80.5447 1.61134 80.5447L 1.84101 80.5447L 1.84101 99.1845C 1.84101 100.074 2.56246 100.796 3.45234 100.796C 4.34223 100.796 5.06368 100.074 5.06368 99.1845L 5.06368 80.5447L 11.046 80.5447L 11.046 99.1845C 11.046 100.074 11.7675 100.796 12.6574 100.796C 13.5473 100.796 14.2687 100.074 14.2687 99.1845L 14.2687 71.4007C 14.2687 69.9875 13.8543 68.6189 13.0705 67.4433L 10.3162 63.3118C 9.8225 62.5712 8.82197 62.3714 8.08182 62.8647C 7.34125 63.3582 7.14123 64.3588 7.63495 65.0993L 10.3893 69.231C 10.8189 69.8755 11.0463 70.6258 11.0463 71.4007L 11.0463 77.3221L 3.45234 77.3221L 3.22268 77.3221L 3.22268 60.9507C 3.22268 59.2098 4.34288 57.7044 6.0105 57.204L 11.5421 55.5445C 13.4684 63.6102 20.7841 69.4987 29.2264 69.4987C 32.2594 69.4987 35.2049 68.7508 37.8426 67.3277C 38.8066 68.6428 40.3614 69.4987 42.1133 69.4987L 42.3429 69.4987L 42.3429 69.7284C 42.3429 75.1302 45.3147 79.8482 49.707 82.3424L 49.707 84.9706C 49.707 85.0694 49.6438 85.157 49.5499 85.1884L 43.5392 87.192C 40.6214 88.1647 38.6609 90.8846 38.6609 93.9603L 38.6609 99.1845C 38.6609 100.074 39.3824 100.796 40.2723 100.796C 41.1622 100.796 41.8836 100.074 41.8836 99.1845L 41.8836 93.9603C 41.8836 92.274 42.9585 90.7825 44.5582 90.2495L 46.3257 89.6602C 48.6641 93.1476 52.5968 95.273 56.8411 95.273C 61.0899 95.273 65.019 93.1488 67.3569 89.6604L 69.124 90.2495C 70.7238 90.7828 71.7986 92.274 71.7986 93.9603L 71.7986 99.1845C 71.7986 100.074 72.5201 100.796 73.41 100.796C 74.2998 100.796 75.0213 100.074 75.0213 99.1845L 75.0213 93.9603C 75.0213 90.8846 73.0608 88.1647 70.143 87.1923L 64.1323 85.1886C 64.0384 85.1573 63.9753 85.0698 63.9753 84.9708L 63.9753 82.3426C 67.2639 80.4751 69.7531 77.3607 70.7972 73.6454C 73.8422 76.8316 78.0951 78.7042 82.6148 78.7042C 89.7502 78.7042 96.011 74.0917 98.1676 67.3758L 104.318 69.836C 105.812 70.4335 106.777 71.8592 106.777 73.4678L 106.777 81.0043L 106.548 81.0043L 100.795 81.0043L 100.795 78.9336C 100.795 78.0437 100.074 77.3223 99.1836 77.3223C 98.2937 77.3223 97.5723 78.0437 97.5723 78.9336L 97.5723 99.1847C 97.5723 100.075 98.2937 100.796 99.1836 100.796C 100.074 100.796 100.795 100.075 100.795 99.1847L 100.795 84.227L 104.936 84.227L 104.936 99.1847C 104.936 100.075 105.658 100.796 106.548 100.796C 107.438 100.796 108.159 100.075 108.159 99.1847L 108.159 84.227L 108.389 84.227C 108.816 84.227 109.226 84.0573 109.528 83.7552C 109.83 83.4529 110 83.0432 110 82.6156L 110 73.4678C 110.001 70.5334 108.24 67.9333 105.516 66.8437ZM 63.9757 29.2264C 63.9757 18.9485 72.3375 10.5867 82.6154 10.5867C 92.8934 10.5867 101.255 18.9485 101.255 29.2264C 101.255 40.0467 102.558 50.9847 102.981 54.2514C 101.537 55.196 97.8404 57.2766 91.5908 58.6439L 91.5908 56.0797C 92.4467 55.5946 93.2662 55.0409 94.0366 54.4183C 97.2073 51.8554 99.4479 48.266 100.345 44.3116C 100.644 42.9939 100.796 41.635 100.796 40.2727C 100.796 31.1652 94.2093 29.8577 87.8396 28.5931C 83.7865 27.7885 79.5956 26.9564 76.2582 24.2865C 75.7745 23.8996 75.112 23.8242 74.5536 24.0925C 73.9952 24.3608 73.6403 24.9252 73.6403 25.5449C 73.6403 25.5876 73.57 29.8274 67.4968 31.3457C 66.6333 31.5616 66.1085 32.4364 66.3244 33.2999C 66.5401 34.1634 67.4151 34.6878 68.2784 34.4723C 73.3616 33.2015 75.4353 30.3499 76.2809 28.2074C 79.7752 30.2781 83.6894 31.055 87.212 31.7543C 94.0203 33.1059 97.5731 34.0987 97.5731 40.2729C 97.5731 41.3957 97.4483 42.5146 97.2023 43.5987C 96.4643 46.8502 94.6208 49.8026 92.0106 51.9124C 89.325 54.0831 86.0761 55.2304 82.6154 55.2304C 79.4606 55.2304 76.4582 54.2628 73.9101 52.4342C 72.9766 49.8864 71.4772 47.5553 69.4987 45.6346L 69.4987 38.4319C 69.4987 37.8733 69.2095 37.3547 68.7345 37.0612C 68.2595 36.7677 67.6665 36.7409 67.1668 36.9907L 63.6878 38.7301C 63.8786 35.3744 63.9757 32.184 63.9757 29.2264ZM 66.276 41.0386L 66.276 46.8702L 60.4443 43.9545L 66.276 41.0386ZM 47.4066 41.0386L 53.2382 43.9545L 47.4066 46.8702L 47.4066 41.0386ZM 38.6609 58.6823L 38.6609 60.2127C 37.5072 61.2089 36.8199 62.6669 36.8199 64.2051C 34.5249 65.561 31.9178 66.276 29.2262 66.276C 22.2171 66.276 16.1531 61.3436 14.6361 54.6164L 18.617 53.4221C 19.599 58.3824 23.9821 62.1347 29.2264 62.1347C 33.3908 62.1347 37.0105 59.7677 38.8173 56.3098C 38.714 57.0923 38.6609 57.8846 38.6609 58.6823ZM 21.6327 51.3157L 21.6327 47.5832C 23.9449 48.651 26.517 49.2476 29.2264 49.2476C 31.9356 49.2476 34.508 48.6508 36.8201 47.5834L 36.8201 51.3181C 36.8201 55.5052 33.4138 58.9118 29.2264 58.9118C 25.0462 58.9118 21.6446 55.5164 21.6332 51.3387C 21.6332 51.331 21.6327 51.3232 21.6327 51.3157ZM 29.2264 46.025C 20.9785 46.025 14.2687 39.3151 14.2687 31.0674C 14.2687 30.1776 13.5473 29.4561 12.6574 29.4561C 11.5157 29.4561 10.5867 28.5271 10.5867 27.3854C 10.5867 26.2437 11.5155 25.3148 12.6574 25.3148L 16.3394 25.3148C 17.0329 25.3148 17.6487 24.8711 17.868 24.213L 19.347 19.7761C 23.0499 19.6925 34.5288 19.1719 40.9929 15.9398C 41.7889 15.5417 42.1116 14.574 41.7134 13.778C 41.3156 12.982 40.3479 12.6593 39.5517 13.0574C 32.6163 16.525 18.3235 16.5693 18.18 16.5693C 17.4865 16.5695 16.8707 17.0131 16.6516 17.6712L 15.1779 22.0923L 12.6574 22.0923C 12.5805 22.0923 12.504 22.0949 12.4277 22.0981L 12.4277 14.4984C 12.4277 8.28099 17.486 3.22267 23.7034 3.22267L 38.4315 3.22267C 40.3556 3.22267 41.9721 4.6095 42.2757 6.5199C 42.3528 7.00545 42.6474 7.42913 43.0756 7.67061C 44.8949 8.69671 46.0252 10.6073 46.0252 12.6572L 46.0252 22.0977C 45.9489 22.0942 45.8726 22.0919 45.7955 22.0919L 43.9545 22.0919C 43.0646 22.0919 42.3432 22.8133 42.3432 23.7032C 42.3432 24.5931 43.0646 25.3145 43.9545 25.3145L 45.7955 25.3145C 46.9372 25.3145 47.8662 26.2433 47.8662 27.3852C 47.8662 28.5271 46.9374 29.4559 45.7955 29.4559C 44.9056 29.4559 44.1842 30.1773 44.1842 31.0672C 44.1842 39.3149 37.4743 46.025 29.2264 46.025ZM 40.0426 51.3185L 40.0426 45.666C 41.6456 44.4751 43.0466 43.0285 44.1839 41.3845L 44.1839 45.6344C 42.3795 47.3862 40.9729 49.479 40.0312 51.7667C 40.0374 51.6178 40.0426 51.4687 40.0426 51.3185ZM 64.1415 88.5883C 62.3676 90.7555 59.7026 92.0501 56.8413 92.0501C 53.9835 92.0501 51.3168 90.7546 49.5422 88.5881L 50.5691 88.2459C 51.9811 87.7754 52.9299 86.459 52.9299 84.9708L 52.9299 83.6864C 54.1751 84.036 55.4861 84.227 56.8415 84.227C 58.197 84.227 59.508 84.036 60.7532 83.6864L 60.7532 84.9708C 60.753 86.4588 61.7016 87.7751 63.1137 88.2457L 64.1415 88.5883ZM 69.7286 66.276C 68.8387 66.276 68.1173 66.9975 68.1173 67.8874L 68.1173 69.4895C 68.1173 69.5034 68.117 69.5174 68.1173 69.5314L 68.1173 69.7284C 68.117 75.9458 63.0587 81.0041 56.8413 81.0041C 50.6239 81.0041 45.5658 75.9458 45.5658 69.7284L 45.5658 67.8874C 45.5658 66.9975 44.8444 66.276 43.9545 66.276L 42.1135 66.276C 40.9718 66.276 40.0428 65.3473 40.0428 64.2054C 40.0428 63.4706 40.4317 62.8056 41.0829 62.4267C 41.2283 62.342 41.3549 62.2348 41.4644 62.1136C 45.4477 61.9982 58.3596 61.2487 66.8458 56.3994C 67.6184 55.9579 67.8869 54.9737 67.4454 54.2009C 67.0039 53.4281 66.0193 53.1597 65.2469 53.6013C 57.8129 57.8492 46.1313 58.6997 41.8838 58.8697L 41.8838 58.6823C 41.8838 55.6855 42.7913 52.7831 44.4357 50.3363C 44.5644 50.5401 44.7365 50.7172 44.9484 50.848C 45.2073 51.0079 45.501 51.0886 45.7955 51.0886C 46.0417 51.0886 46.2886 51.0321 46.5161 50.9185L 56.8415 45.7558L 67.167 50.9185C 67.3945 51.0321 67.6414 51.0886 67.8876 51.0886C 68.1824 51.0886 68.476 51.0079 68.7347 50.848C 68.9463 50.7172 69.1184 50.5399 69.2471 50.3363C 70.8915 52.7831 71.7991 55.6855 71.7991 58.6823L 71.7991 61.034C 71.7991 61.6077 72.1039 62.1381 72.6 62.4267C 73.2514 62.8059 73.6403 63.4706 73.6403 64.2054C 73.6403 65.347 72.7113 66.276 71.5696 66.276L 69.7286 66.276L 69.7286 66.276ZM 82.6154 75.4811C 78.1544 75.4811 74.0156 73.2099 71.6063 69.4978C 74.508 69.4779 76.8627 67.1118 76.8627 64.2056C 76.8627 62.6673 76.1754 61.2091 75.0217 60.2129L 75.0217 58.6825C 75.0217 58.0339 74.9867 57.389 74.9182 56.75C 77.3075 57.8702 79.9161 58.4527 82.6154 58.4527C 84.5802 58.4527 86.5232 58.1272 88.3681 57.5119L 88.3681 59.8715C 88.3681 62.0485 89.6742 63.9778 91.6954 64.7863L 95.1701 66.1761C 93.5048 71.6822 88.4195 75.4811 82.6154 75.4811Z"/>
<path id="path8_fill" d="M 9.9903 0.359938C 9.29914 -0.200593 8.28443 -0.0948926 7.7239 0.596479C 7.0727 1.39914 6.20967 1.84108 5.29336 1.84108C 4.37704 1.84108 3.51379 1.39914 2.86281 0.596479C 2.30228 -0.0946778 1.28735 -0.200593 0.596412 0.359938C -0.0947448 0.920469 -0.200663 1.93518 0.359868 2.62634C 1.61628 4.17516 3.41432 5.06375 5.29336 5.06375C 7.17239 5.06375 8.97042 4.17537 10.2268 2.62655C 10.7872 1.93539 10.6812 0.920469 9.9903 0.359938Z"/>
<path id="path9_fill" d="M 1.61134 3.22268C 2.50125 3.22268 3.22268 2.50126 3.22268 1.61134C 3.22268 0.721423 2.50125 2.46526e-06 1.61134 2.46526e-06C 0.72142 2.46526e-06 0 0.721423 0 1.61134C 0 2.50126 0.72142 3.22268 1.61134 3.22268Z"/>
</defs>
</svg>
