<svg width="122" height="36" viewBox="0 0 122 36" version="1.1" xmlns="http://www.w3.org/2000/svg" xmlns:xlink="http://www.w3.org/1999/xlink">
<title>Group</title>
<desc>Created using Figma</desc>
<g id="Canvas" transform="translate(-1130 429)">
<g id="Group">
<g id="Ellipse">
<use xlink:href="#path0_fill" transform="translate(1130 -429)" fill="#FFFFFF"/>
</g>
<g id="Ellipse">
<use xlink:href="#path1_fill" transform="translate(1136 -423)" fill="#FFFFFF"/>
<mask id="mask0_outline_ins">
<use xlink:href="#path1_fill" fill="white" transform="translate(1136 -423)"/>
</mask>
<g mask="url(#mask0_outline_ins)">
<use xlink:href="#path2_stroke_2x" transform="translate(1136 -423)" fill="#E58EB0"/>
</g>
</g>
<g id="Nandini">
<use xlink:href="#path3_fill" transform="translate(1174 -428)" fill="#FFFFFF"/>
</g>
</g>
</g>
<defs>
<path id="path0_fill" d="M 36 18C 36 27.9411 27.9411 36 18 36C 8.05887 36 0 27.9411 0 18C 0 8.05887 8.05887 0 18 0C 27.9411 0 36 8.05887 36 18Z"/>
<path id="path1_fill" d="M 24 12C 24 18.6274 18.6274 24 12 24C 5.37258 24 0 18.6274 0 12C 0 5.37258 5.37258 0 12 0C 18.6274 0 24 5.37258 24 12Z"/>
<path id="path2_stroke_2x" d="M 21 12C 21 16.9706 16.9706 21 12 21L 12 27C 20.2843 27 27 20.2843 27 12L 21 12ZM 12 21C 7.02944 21 3 16.9706 3 12L -3 12C -3 20.2843 3.71573 27 12 27L 12 21ZM 3 12C 3 7.02944 7.02944 3 12 3L 12 -3C 3.71573 -3 -3 3.71573 -3 12L 3 12ZM 12 3C 16.9706 3 21 7.02944 21 12L 27 12C 27 3.71573 20.2843 -3 12 -3L 12 3Z"/>
<path id="path3_fill" d="M 1.716 26.09L 1.716 8.904C 1.716 8.29733 2.17533 7.994 3.094 7.994C 3.57933 7.994 3.96933 8.10667 4.264 8.332C 4.55867 8.54 4.862 8.94733 5.174 9.554L 10.946 20.812L 10.946 8.878C 10.946 8.58333 11.076 8.36667 11.336 8.228C 11.6133 8.072 11.9427 7.994 12.324 7.994C 12.7053 7.994 13.026 8.072 13.286 8.228C 13.5633 8.36667 13.702 8.58333 13.702 8.878L 13.702 26.09C 13.702 26.3673 13.5633 26.5927 13.286 26.766C 13.026 26.922 12.7053 27 12.324 27C 11.596 27 11.05 26.662 10.686 25.986L 4.472 14.156L 4.472 26.09C 4.472 26.3673 4.33333 26.5927 4.056 26.766C 3.796 26.922 3.47533 27 3.094 27C 2.73 27 2.40933 26.922 2.132 26.766C 1.85467 26.5927 1.716 26.3673 1.716 26.09ZM 16.0621 23.776C 16.0621 22.3893 16.5821 21.4273 17.6221 20.89C 18.6621 20.3353 20.1701 20.058 22.1461 20.058L 23.2901 20.058L 23.2901 19.59C 23.2901 18.8273 23.0734 18.1687 22.6401 17.614C 22.2241 17.0593 21.5828 16.782 20.7161 16.782C 19.9708 16.782 19.3121 16.912 18.7401 17.172C 18.1854 17.432 17.8821 17.562 17.8301 17.562C 17.5354 17.562 17.2928 17.4233 17.1021 17.146C 16.9288 16.8513 16.8421 16.5307 16.8421 16.184C 16.8421 15.7333 17.2581 15.3433 18.0901 15.014C 18.9394 14.6847 19.8321 14.52 20.7681 14.52C 22.5534 14.52 23.8708 15.0053 24.7201 15.976C 25.5868 16.9293 26.0201 18.1253 26.0201 19.564L 26.0201 26.09C 26.0201 26.3327 25.8901 26.5493 25.6301 26.74C 25.3874 26.9133 25.0754 27 24.6941 27C 24.3474 27 24.0528 26.9133 23.8101 26.74C 23.5674 26.5493 23.4461 26.3327 23.4461 26.09L 23.4461 25.18C 22.2848 26.532 20.9761 27.208 19.5201 27.208C 18.5148 27.208 17.6828 26.9133 17.0241 26.324C 16.3828 25.7347 16.0621 24.8853 16.0621 23.776ZM 18.8181 23.438C 18.8181 23.9927 18.9741 24.4173 19.2861 24.712C 19.5981 24.9893 20.0054 25.128 20.5081 25.128C 21.1668 25.128 21.7908 24.8507 22.3801 24.296C 22.9868 23.7413 23.2901 23.152 23.2901 22.528L 23.2901 21.566L 22.6401 21.566C 21.8601 21.566 21.2188 21.6007 20.7161 21.67C 20.2308 21.7393 19.7888 21.9213 19.3901 22.216C 19.0088 22.5107 18.8181 22.918 18.8181 23.438ZM 28.8011 26.09L 28.8011 15.56C 28.8011 15.3 28.9224 15.092 29.1651 14.936C 29.4251 14.7627 29.7544 14.676 30.1531 14.676C 30.4998 14.676 30.7858 14.7627 31.0111 14.936C 31.2538 15.092 31.3751 15.3 31.3751 15.56L 31.3751 16.496C 31.6524 15.9413 32.0944 15.4733 32.7011 15.092C 33.3251 14.7107 34.0444 14.52 34.8591 14.52C 36.0898 14.52 37.1471 15.0227 38.0311 16.028C 38.9324 17.0333 39.3831 18.238 39.3831 19.642L 39.3831 26.09C 39.3831 26.3673 39.2444 26.5927 38.9671 26.766C 38.7071 26.922 38.3864 27 38.0051 27C 37.6584 27 37.3464 26.922 37.0691 26.766C 36.7918 26.5927 36.6531 26.3673 36.6531 26.09L 36.6531 19.642C 36.6531 18.9487 36.3931 18.3247 35.8731 17.77C 35.3531 17.2153 34.7378 16.938 34.0271 16.938C 33.3684 16.938 32.7878 17.1893 32.2851 17.692C 31.7824 18.1773 31.5311 18.8273 31.5311 19.642L 31.5311 26.09C 31.5311 26.3153 31.3924 26.5233 31.1151 26.714C 30.8378 26.9047 30.5171 27 30.1531 27C 29.7718 27 29.4511 26.9047 29.1911 26.714C 28.9311 26.5233 28.8011 26.3153 28.8011 26.09ZM 41.6632 22.034L 41.6632 19.642C 41.6632 18.238 42.1138 17.0333 43.0152 16.028C 43.9338 15.0227 45.0345 14.52 46.3172 14.52C 47.0798 14.52 47.7558 14.7107 48.3452 15.092C 48.9345 15.4733 49.3852 15.9413 49.6972 16.496L 49.6972 8.228C 49.6972 7.968 49.8272 7.76 50.0872 7.604C 50.3472 7.43067 50.6765 7.344 51.0752 7.344C 51.4738 7.344 51.7945 7.43067 52.0372 7.604C 52.2972 7.76 52.4272 7.968 52.4272 8.228L 52.4272 26.09C 52.4272 26.3153 52.2972 26.5233 52.0372 26.714C 51.7772 26.9047 51.4565 27 51.0752 27C 50.7458 27 50.4512 26.9047 50.1912 26.714C 49.9485 26.5233 49.8272 26.3153 49.8272 26.09L 49.8272 25.18C 49.5498 25.7347 49.0732 26.2113 48.3972 26.61C 47.7385 27.0087 47.0192 27.208 46.2392 27.208C 45.0258 27.208 43.9598 26.688 43.0412 25.648C 42.1225 24.5907 41.6632 23.386 41.6632 22.034ZM 44.3932 22.034C 44.3932 22.7447 44.6532 23.386 45.1732 23.958C 45.6932 24.5127 46.3085 24.79 47.0192 24.79C 47.6952 24.79 48.3105 24.53 48.8652 24.01C 49.4198 23.4727 49.6972 23.0133 49.6972 22.632L 49.6972 19.642C 49.6972 18.8447 49.4285 18.1947 48.8912 17.692C 48.3538 17.1893 47.7385 16.938 47.0452 16.938C 46.3345 16.938 45.7105 17.2153 45.1732 17.77C 44.6532 18.3247 44.3932 18.9487 44.3932 19.642L 44.3932 22.034ZM 55.0749 10.152C 55.0749 9.75333 55.2309 9.41533 55.5429 9.138C 55.8549 8.86067 56.2276 8.722 56.6609 8.722C 57.0942 8.722 57.4669 8.86067 57.7789 9.138C 58.0909 9.41533 58.2469 9.75333 58.2469 10.152C 58.2469 10.5333 58.0909 10.8713 57.7789 11.166C 57.4669 11.4433 57.0942 11.582 56.6609 11.582C 56.2276 11.582 55.8549 11.4433 55.5429 11.166C 55.2309 10.8713 55.0749 10.5333 55.0749 10.152ZM 55.3089 26.09L 55.3089 15.56C 55.3089 15.3 55.4302 15.092 55.6729 14.936C 55.9329 14.7627 56.2622 14.676 56.6609 14.676C 57.0596 14.676 57.3889 14.7627 57.6489 14.936C 57.9089 15.092 58.0389 15.3 58.0389 15.56L 58.0389 26.09C 58.0389 26.3153 57.9002 26.5233 57.6229 26.714C 57.3629 26.9047 57.0422 27 56.6609 27C 56.2796 27 55.9589 26.9047 55.6989 26.714C 55.4389 26.5233 55.3089 26.3153 55.3089 26.09ZM 60.8948 26.09L 60.8948 15.56C 60.8948 15.3 61.0162 15.092 61.2588 14.936C 61.5188 14.7627 61.8482 14.676 62.2468 14.676C 62.5935 14.676 62.8795 14.7627 63.1048 14.936C 63.3475 15.092 63.4688 15.3 63.4688 15.56L 63.4688 16.496C 63.7462 15.9413 64.1882 15.4733 64.7948 15.092C 65.4188 14.7107 66.1382 14.52 66.9528 14.52C 68.1835 14.52 69.2408 15.0227 70.1248 16.028C 71.0262 17.0333 71.4768 18.238 71.4768 19.642L 71.4768 26.09C 71.4768 26.3673 71.3382 26.5927 71.0608 26.766C 70.8008 26.922 70.4802 27 70.0988 27C 69.7522 27 69.4402 26.922 69.1628 26.766C 68.8855 26.5927 68.7468 26.3673 68.7468 26.09L 68.7468 19.642C 68.7468 18.9487 68.4868 18.3247 67.9668 17.77C 67.4468 17.2153 66.8315 16.938 66.1208 16.938C 65.4622 16.938 64.8815 17.1893 64.3788 17.692C 63.8762 18.1773 63.6248 18.8273 63.6248 19.642L 63.6248 26.09C 63.6248 26.3153 63.4862 26.5233 63.2088 26.714C 62.9315 26.9047 62.6108 27 62.2468 27C 61.8655 27 61.5448 26.9047 61.2848 26.714C 61.0248 26.5233 60.8948 26.3153 60.8948 26.09ZM 73.9909 10.152C 73.9909 9.75333 74.1469 9.41533 74.4589 9.138C 74.7709 8.86067 75.1436 8.722 75.5769 8.722C 76.0103 8.722 76.3829 8.86067 76.6949 9.138C 77.0069 9.41533 77.1629 9.75333 77.1629 10.152C 77.1629 10.5333 77.0069 10.8713 76.6949 11.166C 76.3829 11.4433 76.0103 11.582 75.5769 11.582C 75.1436 11.582 74.7709 11.4433 74.4589 11.166C 74.1469 10.8713 73.9909 10.5333 73.9909 10.152ZM 74.2249 26.09L 74.2249 15.56C 74.2249 15.3 74.3463 15.092 74.5889 14.936C 74.8489 14.7627 75.1783 14.676 75.5769 14.676C 75.9756 14.676 76.3049 14.7627 76.5649 14.936C 76.8249 15.092 76.9549 15.3 76.9549 15.56L 76.9549 26.09C 76.9549 26.3153 76.8163 26.5233 76.5389 26.714C 76.2789 26.9047 75.9583 27 75.5769 27C 75.1956 27 74.8749 26.9047 74.6149 26.714C 74.3549 26.5233 74.2249 26.3153 74.2249 26.09Z"/>
</defs>
</svg>
