<svg width="136" height="136" viewBox="0 0 136 136" version="1.1" xmlns="http://www.w3.org/2000/svg" xmlns:xlink="http://www.w3.org/1999/xlink">
<title>Group</title>
<desc>Created using Figma</desc>
<g id="Canvas" transform="translate(-1869 152)">
<g id="Group">
<g id="Ellipse 2">
<use xlink:href="#path0_fill" transform="translate(1869 -152)" fill="#F2F2F2"/>
</g>
<g id="Mask Group">
<mask id="mask0_alpha" mask-type="alpha">
<g id="Ellipse 2">
<use xlink:href="#path0_fill" transform="translate(1869 -152)" fill="#F2F2F2"/>
</g>
</mask>
<g id="product" mask="url(#mask0_alpha)">
<g id="Group">
<g id="Group">
<g id="Vector">
<use xlink:href="#path1_fill" transform="translate(1955.06 -35.3049)" fill="#BDBDBD"/>
</g>
</g>
</g>
<g id="Group">
<g id="Group">
<g id="Vector">
<use xlink:href="#path2_fill" transform="translate(1947.83 -24.6337)" fill="#BDBDBD"/>
</g>
</g>
</g>
<g id="Group">
<g id="Group">
<g id="Vector">
<use xlink:href="#path3_fill" transform="translate(1959.84 -44.1925)" fill="#BDBDBD"/>
</g>
</g>
</g>
<g id="Group">
<g id="Group">
<g id="Vector">
<use xlink:href="#path4_fill" transform="translate(1959.84 -52.9879)" fill="#BDBDBD"/>
</g>
</g>
</g>
<g id="Group">
<g id="Group">
<g id="Vector">
<use xlink:href="#path5_fill" transform="translate(1881 -111)" fill="#BDBDBD"/>
</g>
</g>
</g>
</g>
</g>
</g>
</g>
<defs>
<path id="path0_fill" d="M 136 68C 136 105.555 105.555 136 68 136C 30.4446 136 0 105.555 0 68C 0 30.4446 30.4446 0 68 0C 105.555 0 136 30.4446 136 68Z"/>
<path id="path1_fill" d="M 27.0367 1.42669C 26.6175 0.296491 25.3577 -0.281545 24.2222 0.135463L 1.43332 8.50534C 0.297868 8.92235 -0.282854 10.1766 0.136092 11.3068C 0.462869 12.1878 1.30055 12.7334 2.19215 12.7334C 2.44394 12.7334 2.70025 12.6897 2.95055 12.598L 25.7395 4.22813C 26.8749 3.81112 27.4556 2.55689 27.0367 1.42669Z"/>
<path id="path2_fill" d="M 5.21282 1.4269C 4.79409 0.296489 3.53382 -0.281548 2.39837 0.13546L 1.43329 0.489805C 0.298057 0.906813 -0.282879 2.16104 0.136066 3.29103C 0.462628 4.17209 1.30052 4.71784 2.19212 4.71784C 2.44392 4.71784 2.70023 4.67421 2.95052 4.58247L 3.9156 4.22812C 5.05083 3.81112 5.63177 2.5571 5.21282 1.4269Z"/>
<path id="path3_fill" d="M 22.257 1.42652C 21.8379 0.296318 20.578 -0.28129 19.4426 0.13529L 1.43332 6.74967C 0.29787 7.16668 -0.282858 8.42091 0.136087 9.55111C 0.462864 10.4322 1.30054 10.9777 2.19214 10.9777C 2.44394 10.9777 2.70025 10.9341 2.95054 10.8423L 20.9598 4.22795C 22.0953 3.81095 22.676 2.55671 22.257 1.42652Z"/>
<path id="path4_fill" d="M 22.257 1.42652C 21.8379 0.296319 20.578 -0.281289 19.4426 0.135291L 1.43332 6.74967C 0.29787 7.16668 -0.282858 8.42091 0.136087 9.55111C 0.462864 10.4322 1.30054 10.9777 2.19214 10.9777C 2.44394 10.9777 2.70025 10.9341 2.95054 10.8423L 20.9598 4.22795C 22.0953 3.81095 22.676 2.55671 22.257 1.42652Z"/>
<path id="path5_fill" d="M 108.567 19.5301L 55.7586 0.134726C 55.269 -0.0449086 54.731 -0.0449086 54.2416 0.134726L 1.43279 19.5301L 1.43236 19.5318C 1.25941 19.5955 1.09312 19.6798 0.938438 19.7869C 0.35041 20.1949 0 20.8632 0 21.5764L 0 83.9792C 0 84.8925 0.571699 85.7092 1.43258 86.0255L 54.2414 105.421C 54.4876 105.511 54.7443 105.556 54.9998 105.556C 55.2578 105.556 55.5146 105.509 55.7578 105.42L 55.7586 105.421L 108.567 86.0255C 109.428 85.7092 110 84.8927 110 83.9792L 110 21.5764C 110 20.6628 109.428 19.8464 108.567 19.5301ZM 52.8088 100.245L 4.38238 82.4591L 4.38238 24.7061L 14.2429 28.3279L 14.2429 54.755C 14.2429 55.6684 14.8146 56.4851 15.6754 56.8014L 39.3407 65.4933C 39.5869 65.5838 39.8436 65.628 40.0991 65.628C 40.5412 65.628 40.9795 65.4948 41.3523 65.2363C 41.9401 64.8284 42.2905 64.1602 42.2905 63.447L 42.2905 38.629L 52.8084 42.492L 52.8084 100.245L 52.8088 100.245ZM 37.9083 37.0194L 37.9083 60.3168L 18.6255 53.2346L 18.6255 29.9371L 37.9083 37.0194ZM 22.7642 26.7901L 40.0995 20.4231L 57.4348 26.7901L 40.0995 33.157L 22.7642 26.7901ZM 55 38.647L 46.406 35.4906L 64.5236 28.8362C 65.3845 28.5199 65.9562 27.7034 65.9562 26.7899C 65.9562 25.8763 65.3845 25.0598 64.5236 24.7435L 40.8581 16.0518C 40.3685 15.8722 39.8307 15.8722 39.3409 16.0518L 16.4104 24.4741L 8.52135 21.5764L 55 4.50604L 101.479 21.5766L 55 38.647ZM 105.618 82.4591L 57.1914 100.245L 57.1914 42.492L 105.618 24.7061L 105.618 82.4591Z"/>
</defs>
</svg>
