<svg width="136" height="136" viewBox="0 0 136 136" version="1.1" xmlns="http://www.w3.org/2000/svg" xmlns:xlink="http://www.w3.org/1999/xlink">
<title>Group</title>
<desc>Created using Figma</desc>
<g id="Canvas" transform="translate(-1269 152)">
<g id="Group">
<g id="Ellipse 2">
<use xlink:href="#path0_fill" transform="translate(1269 -152)" fill="#F2F2F2"/>
</g>
<g id="charts">
<g id="Group">
<g id="Vector">
<use xlink:href="#path1_fill" transform="translate(1320.33 -90)" fill="#BDBDBD"/>
</g>
<g id="Vector">
<use xlink:href="#path1_fill" transform="translate(1320.33 -83.3333)" fill="#BDBDBD"/>
</g>
<g id="Vector">
<use xlink:href="#path1_fill" transform="translate(1320.33 -76.6667)" fill="#BDBDBD"/>
</g>
<g id="Vector">
<use xlink:href="#path1_fill" transform="translate(1320.33 -70)" fill="#BDBDBD"/>
</g>
<g id="Vector">
<use xlink:href="#path1_fill" transform="translate(1320.33 -63.3333)" fill="#BDBDBD"/>
</g>
<g id="Vector">
<use xlink:href="#path2_fill" transform="translate(1298.67 -100)" fill="#BDBDBD"/>
</g>
<g id="Vector">
<use xlink:href="#path3_fill" transform="translate(1287 -120)" fill="#BDBDBD"/>
</g>
</g>
</g>
</g>
</g>
<defs>
<path id="path0_fill" d="M 136 68C 136 105.555 105.555 136 68 136C 30.4446 136 0 105.555 0 68C 0 30.4446 30.4446 0 68 0C 105.555 0 136 30.4446 136 68Z"/>
<path id="path1_fill" d="M 1.66667 3.33333C 2.58714 3.33333 3.33333 2.58714 3.33333 1.66667C 3.33333 0.746192 2.58714 0 1.66667 0C 0.746192 0 0 0.746192 0 1.66667C 0 2.58714 0.746192 3.33333 1.66667 3.33333Z"/>
<path id="path2_fill" d="M 36.6667 11.6667L 36.6667 21.6667L 30 21.6667L 30 5L 16.6667 5L 16.6667 15L 6.66667 15L 6.66667 41.6667L 1.66667 41.6667C 0.746667 41.6667 0 42.4117 0 43.3333C 0 44.255 0.746667 45 1.66667 45L 6.66667 45L 16.6667 45L 20 45L 26.6667 45L 30 45L 36.6667 45L 40 45L 46.6667 45L 50 45L 56.6667 45L 60 45L 70 45L 75 45C 75.92 45 76.6667 44.255 76.6667 43.3333C 76.6667 42.4117 75.92 41.6667 75 41.6667L 70 41.6667L 70 5L 60 5L 60 0L 46.6667 0L 46.6667 11.6667L 36.6667 11.6667ZM 10 41.6667L 10 18.3333L 16.6667 18.3333L 16.6667 41.6667L 10 41.6667ZM 21.6667 41.6667C 21.6667 40.7467 20.92 40 20 40L 20 36.6667C 20.92 36.6667 21.6667 35.92 21.6667 35C 21.6667 34.08 20.92 33.3333 20 33.3333L 20 30C 20.92 30 21.6667 29.2533 21.6667 28.3333C 21.6667 27.4133 20.92 26.6667 20 26.6667L 20 23.3333C 20.92 23.3333 21.6667 22.5867 21.6667 21.6667C 21.6667 20.7467 20.92 20 20 20L 20 16.6667C 20.92 16.6667 21.6667 15.92 21.6667 15C 21.6667 14.08 20.92 13.3333 20 13.3333L 20 10C 20.92 10 21.6667 9.25333 21.6667 8.33333L 25 8.33333C 25 9.25333 25.7467 10 26.6667 10L 26.6667 13.3333C 25.7467 13.3333 25 14.08 25 15C 25 15.92 25.7467 16.6667 26.6667 16.6667L 26.6667 20C 25.7467 20 25 20.7467 25 21.6667C 25 22.5867 25.7467 23.3333 26.6667 23.3333L 26.6667 26.6667C 25.7467 26.6667 25 27.4133 25 28.3333C 25 29.2533 25.7467 30 26.6667 30L 26.6667 33.3333C 25.7467 33.3333 25 34.08 25 35C 25 35.92 25.7467 36.6667 26.6667 36.6667L 26.6667 40C 25.7467 40 25 40.7467 25 41.6667L 21.6667 41.6667ZM 30 41.6667L 30 25L 36.6667 25L 36.6667 41.6667L 30 41.6667ZM 40 41.6667L 40 21.6667L 40 15L 46.6667 15L 46.6667 41.6667L 40 41.6667ZM 66.6667 8.33333L 66.6667 41.6667L 60 41.6667L 60 8.33333L 66.6667 8.33333ZM 50 3.33333L 56.6667 3.33333L 56.6667 5L 56.6667 41.6667L 50 41.6667L 50 11.6667L 50 3.33333Z"/>
<path id="path3_fill" d="M 100 6.66667L 51.6667 6.66667L 51.6667 1.66667C 51.6667 0.745 50.92 0 50 0C 49.08 0 48.3333 0.745 48.3333 1.66667L 48.3333 6.66667L 0 6.66667L 0 76.6667L 45.9767 76.6667L 25.4883 97.155C 24.8367 97.8067 24.8367 98.86 25.4883 99.5117C 25.8133 99.8367 26.24 100 26.6667 100C 27.0933 100 27.52 99.8367 27.845 99.5117L 48.3333 79.0233L 48.3333 95C 48.3333 95.9217 49.08 96.6667 50 96.6667C 50.92 96.6667 51.6667 95.9217 51.6667 95L 51.6667 79.0233L 72.155 99.5117C 72.48 99.8367 72.9067 100 73.3333 100C 73.76 100 74.1867 99.8367 74.5117 99.5117C 75.1633 98.86 75.1633 97.8067 74.5117 97.155L 54.0233 76.6667L 100 76.6667L 100 6.66667ZM 96.6667 73.3333L 3.33333 73.3333L 3.33333 10L 96.6667 10L 96.6667 73.3333Z"/>
</defs>
</svg>
