<svg width="136" height="136" viewBox="0 0 136 136" version="1.1" xmlns="http://www.w3.org/2000/svg" xmlns:xlink="http://www.w3.org/1999/xlink">
<title>Group</title>
<desc>Created using Figma</desc>
<g id="Canvas" transform="translate(-1869 -118)">
<g id="Group">
<g id="Ellipse 2">
<use xlink:href="#path0_fill" transform="translate(1869 118)" fill="#F2F2F2"/>
</g>
<g id="Mask Group">
<mask id="mask0_alpha" mask-type="alpha">
<g id="Ellipse 2">
<use xlink:href="#path0_fill" transform="translate(1869 118)" fill="#F2F2F2"/>
</g>
</mask>
<g id="team" mask="url(#mask0_alpha)">
<g id="Group">
<g id="Group">
<g id="Vector">
<use xlink:href="#path1_fill" transform="translate(1958.46 170.393)" fill="#BDBDBD"/>
</g>
</g>
</g>
<g id="Group">
<g id="Group">
<g id="Vector">
<use xlink:href="#path2_fill" transform="translate(1877 159)" fill="#BDBDBD"/>
</g>
</g>
</g>
<g id="Group">
<g id="Group">
<g id="Vector">
<use xlink:href="#path3_fill" transform="translate(1954.63 215.936)" fill="#BDBDBD"/>
</g>
</g>
</g>
</g>
</g>
</g>
</g>
<defs>
<path id="path0_fill" d="M 136 68C 136 105.555 105.555 136 68 136C 30.4446 136 0 105.555 0 68C 0 30.4446 30.4446 0 68 0C 105.555 0 136 30.4446 136 68Z"/>
<path id="path1_fill" d="M 13.9318 2.0864C 9.81589 0.0236872 2.09883 1.44577e-08 1.77246 1.44577e-08C 0.79359 1.44577e-08 5.76973e-08 0.795427 5.76973e-08 1.77657C 5.76973e-08 2.7577 0.79359 3.55313 1.77246 3.55313C 3.76376 3.55313 9.54506 3.8606 12.3465 5.26432C 12.601 5.392 12.8714 5.45216 13.1377 5.45216C 13.7879 5.45216 14.4139 5.09211 14.7244 4.46984C 15.1623 3.59222 14.8074 2.52509 13.9318 2.0864Z"/>
<path id="path2_fill" d="M 119.228 66.4592L 108.522 66.4592C 109.226 65.3189 109.633 63.976 109.633 62.5394L 109.633 45.9491C 109.633 42.6302 107.409 39.6754 104.226 38.7637L 97.8342 36.9334C 96.973 36.6868 96.3718 35.8876 96.372 34.9898L 96.3722 33.5079C 96.9676 33.0946 97.5352 32.632 98.066 32.1156C 100.639 29.6132 102.055 26.2565 102.055 22.664L 102.055 19.2857L 102.763 17.8677C 103.54 16.311 103.95 14.5678 103.95 12.8273L 103.95 3.6756C 103.95 2.69446 103.156 1.89903 102.177 1.89903L 85.1273 1.89903C 78.927 1.89903 73.8826 6.95513 73.8826 13.1698L 73.8826 13.2757C 73.8826 14.7228 74.2238 16.1722 74.8697 17.467L 75.777 19.2857L 75.777 22.1862C 75.777 26.783 78.037 30.9077 81.4602 33.39L 81.4602 34.99C 81.4602 35.8876 80.8587 36.6868 79.9978 36.9334L 73.6068 38.7637C 70.4229 39.6754 68.1993 42.6305 68.1993 45.9493L 68.1993 47.471L 68.0774 47.471C 66.0554 47.471 64.4105 49.1197 64.4105 51.1464L 64.4105 66.3369C 64.4105 66.3782 64.4152 66.4182 64.4167 66.4592L 55.4773 66.4592C 56.1813 65.3189 56.5888 63.976 56.5888 62.5394L 56.5888 45.9491C 56.5888 42.6302 54.3649 39.6754 51.1811 38.7637L 44.7896 36.9334C 44.7204 36.9137 44.6549 36.8865 44.589 36.8597C 47.6215 36.2673 50.0935 35.4913 51.6793 34.9232C 52.6017 34.5928 53.3402 33.9213 53.7583 33.0316C 54.1726 32.1501 54.2198 31.1629 53.8911 30.2514C 52.3287 25.9213 51.1504 18.6738 50.9006 15.1065C 50.2975 6.49418 43.8365 -0.000236753 35.8722 1.22141e-07C 27.9075 1.22141e-07 21.4463 6.49441 20.8432 15.1065C 20.5932 18.6734 19.4151 25.9208 17.8525 30.2514C 17.5237 31.1626 17.571 32.1499 17.9853 33.0313C 18.4036 33.9208 19.1416 34.5928 20.064 34.923C 21.6498 35.491 24.1222 36.267 27.1553 36.8597C 27.0893 36.8862 27.0232 36.913 26.9537 36.9329L 20.5627 38.7632C 17.3789 39.675 15.1552 42.6297 15.1552 45.9486L 15.1552 62.5389C 15.1552 63.9755 15.5629 65.3184 16.2667 66.4587L 1.77246 66.4587C 0.79359 66.4587 0 67.2541 0 68.2353C 0 69.2164 0.79359 70.0118 1.77246 70.0118L 3.78881 70.0118L 3.78881 87.2234C 3.78881 88.2046 4.5824 89 5.56127 89C 6.54014 89 7.33373 88.2046 7.33373 87.2234L 7.33373 77.607L 22.7331 77.607L 22.7331 87.2234C 22.7331 88.2046 23.5267 89 24.5056 89C 25.4844 89 26.278 88.2046 26.278 87.2234L 26.278 81.4048L 45.4665 81.4048L 45.4665 87.2234C 45.4665 88.2046 46.26 89 47.2389 89C 48.2178 89 49.0114 88.2046 49.0114 87.2234L 49.0114 77.607L 113.666 77.607L 113.666 87.2234C 113.666 88.2046 114.46 89 115.439 89C 116.418 89 117.211 88.2046 117.211 87.2234L 117.211 70.0118L 119.228 70.0118C 120.206 70.0118 121 69.2164 121 68.2353C 121 67.2539 120.206 66.4592 119.228 66.4592ZM 79.3223 22.1862L 79.3223 18.8662C 79.3223 18.5902 79.2583 18.3183 79.1352 18.0717L 78.041 15.8778C 77.6399 15.0738 77.4279 14.1741 77.4279 13.2754L 77.4279 13.1696C 77.4279 8.91409 80.8821 5.45192 85.1278 5.45192L 100.405 5.45192L 100.405 12.827C 100.405 14.019 100.124 15.2124 99.5927 16.2785L 98.6982 18.0715C 98.5751 18.3183 98.511 18.59 98.511 18.8659L 98.511 22.6635C 98.511 25.2869 97.4764 27.7379 95.5976 29.5654C 93.7197 31.3919 91.2397 32.3541 88.6205 32.2755C 83.4933 32.1217 79.3223 27.5953 79.3223 22.1862ZM 93.136 36.8092L 91.6818 38.2667C 90.9433 39.007 89.9611 39.4149 88.9163 39.4149C 87.8718 39.4149 86.8896 39.007 86.1511 38.2667L 84.6967 36.809C 84.8739 36.2993 84.9751 35.7589 84.9968 35.2035C 86.1147 35.572 87.2937 35.7907 88.5139 35.8274C 88.6502 35.8317 88.7859 35.8336 88.9218 35.8336C 90.2698 35.8336 91.5857 35.6289 92.8377 35.2385C 92.8618 35.7817 92.9625 36.3102 93.136 36.8092ZM 71.7445 45.9491C 71.7447 44.2081 72.9112 42.6582 74.5811 42.1799L 80.9724 40.3496C 81.5271 40.1906 82.0404 39.946 82.505 39.6368L 83.6446 40.779C 85.0526 42.1906 86.925 42.968 88.9166 42.968C 90.9081 42.968 92.7805 42.1906 94.1886 40.779L 95.3279 39.6371C 95.7923 39.9462 96.3058 40.1909 96.8605 40.3496L 103.252 42.1799C 104.922 42.6582 106.088 44.2081 106.088 45.9491L 106.088 62.5394C 106.088 64.7009 104.334 66.4592 102.178 66.4592L 94.4717 66.4592C 94.4731 66.4182 94.4778 66.3782 94.4778 66.3369L 94.4778 62.4171L 100.283 62.4171C 101.262 62.4171 102.055 61.6217 102.055 60.6406L 102.055 49.2476C 102.055 48.2664 101.262 47.471 100.283 47.471C 99.3041 47.471 98.5105 48.2664 98.5105 49.2476L 98.5105 58.864L 94.4778 58.864L 94.4778 51.1464C 94.4778 49.1197 92.833 47.471 90.811 47.471L 71.7445 47.471L 71.7445 45.9491ZM 67.9557 51.1464C 67.9557 51.0789 68.0103 51.0241 68.0776 51.0241L 90.811 51.0241C 90.8783 51.0241 90.9329 51.0789 90.9329 51.1464L 90.9329 66.3369C 90.9329 66.4045 90.8783 66.4592 90.811 66.4592L 68.0776 66.4592C 68.0103 66.4592 67.9557 66.4045 67.9557 66.3369L 67.9557 51.1464ZM 21.2572 31.5776C 21.2208 31.5646 21.2019 31.5378 21.1923 31.5175C 21.1774 31.4855 21.1837 31.4679 21.1866 31.4601C 22.8586 26.8259 24.1154 19.1296 24.3796 15.3559C 24.6065 12.1178 25.8812 9.13415 27.9687 6.95513C 30.1006 4.72969 32.8338 3.5536 35.8727 3.5536C 38.911 3.5536 41.6436 4.72969 43.7755 6.95513C 45.863 9.13415 47.1378 12.1176 47.3646 15.3559C 47.6291 19.1301 48.8859 26.8264 50.5577 31.4601C 50.5605 31.4677 50.5669 31.4855 50.5518 31.5175C 50.5423 31.5376 50.5232 31.5646 50.487 31.5776C 47.7742 32.5493 42.2682 34.179 35.8718 34.179C 29.4751 34.179 23.9698 32.549 21.2572 31.5776ZM 22.7331 74.0544L 7.33373 74.0544L 7.33373 70.0123L 22.7331 70.0123L 22.7331 74.0544ZM 26.278 77.8519L 26.278 53.0452C 26.278 51.9307 27.1827 51.0241 28.2944 51.0241L 43.4499 51.0241C 44.5618 51.0241 45.4662 51.9309 45.4662 53.0452L 45.4662 77.8519L 26.278 77.8519ZM 43.4501 47.471L 28.2946 47.471C 25.228 47.471 22.7333 49.9717 22.7333 53.0452L 22.7333 66.4592L 22.6114 66.4592C 20.4549 66.4592 18.7006 64.7009 18.7006 62.5394L 18.7006 45.9491C 18.7006 44.2081 19.8672 42.6582 21.5371 42.1799L 27.9281 40.3496C 29.4557 39.9121 30.6872 38.8682 31.3723 37.4931C 32.8073 37.6428 34.3144 37.7321 35.872 37.7321C 37.4325 37.7321 38.9422 37.6423 40.3797 37.4922C 41.0686 38.8599 42.3034 39.9163 43.8167 40.3498L 50.2079 42.1802C 51.878 42.6584 53.0446 44.2083 53.0446 45.9493L 53.0446 62.5396C 53.0446 64.7011 51.2903 66.4594 49.1338 66.4594L 49.0119 66.4594L 49.0119 53.0454C 49.0114 49.9715 46.5167 47.471 43.4501 47.471ZM 49.0114 74.0544L 49.0114 70.0123L 49.1333 70.0123L 113.666 70.0123L 113.666 74.0544L 49.0114 74.0544Z"/>
<path id="path3_fill" d="M 1.77246 3.55313C 2.75136 3.55313 3.54492 2.75774 3.54492 1.77657C 3.54492 0.795399 2.75136 3.35419e-06 1.77246 3.35419e-06C 0.793558 3.35419e-06 0 0.795399 0 1.77657C 0 2.75774 0.793558 3.55313 1.77246 3.55313Z"/>
</defs>
</svg>
