<svg width="136" height="136" viewBox="0 0 136 136" version="1.1" xmlns="http://www.w3.org/2000/svg" xmlns:xlink="http://www.w3.org/1999/xlink">
<title>Group</title>
<desc>Created using Figma</desc>
<g id="Canvas" transform="translate(-1269 -118)">
<g id="Group">
<g id="Ellipse 2">
<use xlink:href="#path0_fill" transform="translate(1269 118)" fill="#F2F2F2"/>
</g>
<g id="double-arrows-icon">
<g id="Group">
<g id="Vector">
<use xlink:href="#path1_fill" transform="translate(1332.76 157.02)" fill="#BDBDBD"/>
</g>
<g id="Vector">
<use xlink:href="#path2_fill" transform="translate(1307 157)" fill="#BDBDBD"/>
</g>
</g>
</g>
</g>
</g>
<defs>
<path id="path0_fill" d="M 136 68C 136 105.555 105.555 136 68 136C 30.4446 136 0 105.555 0 68C 0 30.4446 30.4446 0 68 0C 105.555 0 136 30.4446 136 68Z"/>
<path id="path1_fill" d="M 13.9621 57.6516C 14.6993 58.3828 15.7106 58.8763 16.7463 58.9616C 17.7941 59.0468 18.8725 58.791 19.7437 58.2C 19.9813 58.0415 20.2067 57.8527 20.4077 57.6516L 20.4138 57.6454L 32.897 45.161C 34.682 43.3758 34.682 40.4817 32.897 38.6964C 31.1119 36.9111 28.218 36.9111 26.433 38.6964L 21.7481 43.3818L 21.7481 4.56972C 21.7481 2.04723 19.701 9.29711e-09 17.1788 9.29711e-09C 14.6566 9.29711e-09 12.6096 2.04723 12.6096 4.56972L 12.6096 43.3818L 7.80276 38.5745C 6.01772 36.7893 3.12387 36.7893 1.33883 38.5745C -0.446277 40.3598 -0.446277 43.2539 1.33883 45.0392L 13.9499 57.6516C 13.956 57.6454 13.956 57.6516 13.9621 57.6516Z"/>
<path id="path2_fill" d="M 4.56764 21.766C 5.73737 21.766 6.90709 21.3212 7.79657 20.4255L 12.6034 15.6182L 12.6034 54.4303C 12.6034 56.9528 14.6504 59 17.1726 59C 19.6948 59 21.7418 56.9528 21.7418 54.4303L 21.7418 15.6182L 26.4268 20.3036C 27.3163 21.1932 28.486 21.6441 29.6557 21.6441C 30.8254 21.6441 31.9951 21.1993 32.8846 20.3036C 34.6697 18.5184 34.6697 15.6243 32.8846 13.839C 32.5557 13.51 32.2206 13.1749 31.8916 12.8459C 31.0813 12.0355 30.2771 11.2191 29.4607 10.4148C 28.4129 9.37289 27.3711 8.33099 26.3294 7.283C 25.3058 6.2472 24.2458 5.24186 23.2284 4.19388C 22.2414 3.18245 21.2423 2.18929 20.1884 1.23879C 19.0918 0.251734 17.6601 -0.235703 16.1857 0.111596C 15.808 0.196897 15.4059 0.343128 15.0647 0.532009C 14.0473 1.10475 13.2371 2.04916 12.4146 2.86561C 11.4094 3.85876 10.4224 4.87019 9.42327 5.87553C 8.23527 7.06975 7.03509 8.25788 5.841 9.446C 4.84186 10.4574 3.83054 11.4689 2.82531 12.4803C 2.33792 12.9677 1.85054 13.4491 1.36315 13.9365C 1.35706 13.9426 1.34488 13.9548 1.33878 13.9609C -0.446261 15.7461 -0.446261 18.6403 1.33878 20.4255C 2.2282 21.3212 3.39792 21.766 4.56764 21.766Z"/>
</defs>
</svg>
